<svg width="119" height="19" viewBox="0 0 119 19" fill="none" xmlns="http://www.w3.org/2000/svg">
<g clip-path="url(#clip0_114_8)">
<path fill-rule="evenodd" clip-rule="evenodd" d="M9.81253 14.008L4.04489 17.7874L5.85696 11.1341L0.480286 6.81665L7.36785 6.48407L9.81253 0.036377L12.2572 6.48407L19.1448 6.81665L13.7681 11.1341L15.5802 17.7874L9.81253 14.008Z" fill="#FFC54F"/>
</g>
<g clip-path="url(#clip1_114_8)">
<path fill-rule="evenodd" clip-rule="evenodd" d="M34.4375 14.008L28.6699 17.7874L30.482 11.1341L25.1053 6.81665L31.9929 6.48407L34.4375 0.036377L36.8822 6.48407L43.7698 6.81665L38.3931 11.1341L40.2052 17.7874L34.4375 14.008Z" fill="#FFC54F"/>
</g>
<g clip-path="url(#clip2_114_8)">
<path fill-rule="evenodd" clip-rule="evenodd" d="M108.313 14.008L102.545 17.7874L104.357 11.1341L98.9803 6.81665L105.868 6.48407L108.313 0.036377L110.757 6.48407L117.645 6.81665L112.268 11.1341L114.08 17.7874L108.313 14.008Z" fill="#FFC54F"/>
</g>
<g clip-path="url(#clip3_114_8)">
<path fill-rule="evenodd" clip-rule="evenodd" d="M83.6875 14.008L77.9199 17.7874L79.732 11.1341L74.3553 6.81665L81.2429 6.48407L83.6875 0.036377L86.1322 6.48407L93.0198 6.81665L87.6431 11.1341L89.4552 17.7874L83.6875 14.008Z" fill="#FFC54F"/>
</g>
<g clip-path="url(#clip4_114_8)">
<path fill-rule="evenodd" clip-rule="evenodd" d="M59.0625 14.008L53.2949 17.7874L55.107 11.1341L49.7303 6.81665L56.6179 6.48407L59.0625 0.036377L61.5072 6.48407L68.3948 6.81665L63.0181 11.1341L64.8302 17.7874L59.0625 14.008Z" fill="#FFC54F"/>
</g>
<defs>
<clipPath id="clip0_114_8">
<rect width="19.625" height="17.9896" fill="white" transform="translate(0 0.036377)"/>
</clipPath>
<clipPath id="clip1_114_8">
<rect width="19.625" height="17.9896" fill="white" transform="translate(24.625 0.036377)"/>
</clipPath>
<clipPath id="clip2_114_8">
<rect width="19.625" height="17.9896" fill="white" transform="translate(98.5 0.036377)"/>
</clipPath>
<clipPath id="clip3_114_8">
<rect width="19.625" height="17.9896" fill="white" transform="translate(73.875 0.036377)"/>
</clipPath>
<clipPath id="clip4_114_8">
<rect width="19.625" height="17.9896" fill="white" transform="translate(49.25 0.036377)"/>
</clipPath>
</defs>
</svg>
